<svg xmlns="http://www.w3.org/2000/svg" viewBox="0 0 300 300" class="rewards-svg-renderer" preserveAspectRatio="xMidYMid meet" aria-hidden="true" focusable="false"><defs><clipPath id="__lottie_element_8"><rect width="300" height="300" x="0" y="0"></rect></clipPath></defs><g clip-path="url(#__lottie_element_8)"><g style="display: block;" transform="matrix(-1,0,0,1,288.3034973144531,52.116241455078125)" opacity="1"><g opacity="1" transform="matrix(1,0,0,1,138.25,108.14800262451172)"><path fill="rgb(2,120,217)" fill-opacity="1" d=" M-108.2020034790039,-107.89800262451172 C-108.2020034790039,-107.89800262451172 108.2020034790039,-107.89800262451172 108.2020034790039,-107.89800262451172 C119.13700103759766,-107.89800262451172 128,-99.03399658203125 128,-88.0999984741211 C128,-88.0999984741211 128,48.56100082397461 128,48.56100082397461 C128,59.49599838256836 119.13700103759766,68.36000061035156 108.2020034790039,68.36000061035156 C108.2020034790039,68.36000061035156 88.46199798583984,68.36000061035156 88.46199798583984,68.36000061035156 C88.46199798583984,68.36000061035156 88.46199798583984,107.89800262451172 88.46199798583984,107.89800262451172 C88.46199798583984,107.89800262451172 48.92499923706055,68.36000061035156 48.92499923706055,68.36000061035156 C48.92499923706055,68.36000061035156 -108.2020034790039,68.36000061035156 -108.2020034790039,68.36000061035156 C-119.13600158691406,68.36000061035156 -128,59.49599838256836 -128,48.56100082397461 C-128,48.56100082397461 -128,-88.0999984741211 -128,-88.0999984741211 C-128,-99.03399658203125 -119.13600158691406,-107.89800262451172 -108.2020034790039,-107.89800262451172z"></path></g></g><g style="display: block;" transform="matrix(1,0,0,-1,62.62550354003906,178.34124755859375)" opacity="1"><g opacity="1" transform="matrix(1,0,0,1,60.29800033569336,4.754000186920166)"><path fill="rgb(241,241,241)" fill-opacity="1" d=" M60.04800033569336,4.504000186920166 C60.04800033569336,4.504000186920166 -60.04800033569336,4.504000186920166 -60.04800033569336,4.504000186920166 C-60.04800033569336,4.504000186920166 -60.04800033569336,-4.504000186920166 -60.04800033569336,-4.504000186920166 C-60.04800033569336,-4.504000186920166 60.04800033569336,-4.504000186920166 60.04800033569336,-4.504000186920166 C60.04800033569336,-4.504000186920166 60.04800033569336,4.504000186920166 60.04800033569336,4.504000186920166z"></path></g></g><g style="display: block;" transform="matrix(1,0,0,-1,62.62550354003906,145.31423950195312)" opacity="1"><g opacity="1" transform="matrix(1,0,0,1,81.31400299072266,4.754000186920166)"><path fill="rgb(241,241,241)" fill-opacity="1" d=" M81.06400299072266,4.504000186920166 C81.06400299072266,4.504000186920166 -81.06400299072266,4.504000186920166 -81.06400299072266,4.504000186920166 C-81.06400299072266,4.504000186920166 -81.06400299072266,-4.504000186920166 -81.06400299072266,-4.504000186920166 C-81.06400299072266,-4.504000186920166 81.06400299072266,-4.504000186920166 81.06400299072266,-4.504000186920166 C81.06400299072266,-4.504000186920166 81.06400299072266,4.504000186920166 81.06400299072266,4.504000186920166z"></path></g></g><g style="display: block;" transform="matrix(1,0,0,-1,62.62550354003906,112.28823852539062)" opacity="1"><g opacity="1" transform="matrix(1,0,0,1,66.302001953125,4.754000186920166)"><path fill="rgb(241,241,241)" fill-opacity="1" d=" M66.052001953125,4.504000186920166 C66.052001953125,4.504000186920166 -66.052001953125,4.504000186920166 -66.052001953125,4.504000186920166 C-66.052001953125,4.504000186920166 -66.052001953125,-4.504000186920166 -66.052001953125,-4.504000186920166 C-66.052001953125,-4.504000186920166 66.052001953125,-4.504000186920166 66.052001953125,-4.504000186920166 C66.052001953125,-4.504000186920166 66.052001953125,4.504000186920166 66.052001953125,4.504000186920166z"></path></g></g><g transform="matrix(-0.09858876466751099,0,0,0.09858876466751099,163.68389892578125,52.34135437011719)" opacity="1" style="display: none;"><g opacity="1" transform="matrix(1,0,0,1,138.25,108.14800262451172)"><path fill="rgb(49,210,247)" fill-opacity="1" d=" M-108.2020034790039,-107.89800262451172 C-108.2020034790039,-107.89800262451172 108.2020034790039,-107.89800262451172 108.2020034790039,-107.89800262451172 C119.13700103759766,-107.89800262451172 128,-99.03399658203125 128,-88.0999984741211 C128,-88.0999984741211 128,48.56100082397461 128,48.56100082397461 C128,59.49599838256836 119.13700103759766,68.36000061035156 108.2020034790039,68.36000061035156 C108.2020034790039,68.36000061035156 88.46199798583984,68.36000061035156 88.46199798583984,68.36000061035156 C88.46199798583984,68.36000061035156 88.46199798583984,107.89800262451172 88.46199798583984,107.89800262451172 C88.46199798583984,107.89800262451172 48.92499923706055,68.36000061035156 48.92499923706055,68.36000061035156 C48.92499923706055,68.36000061035156 -108.2020034790039,68.36000061035156 -108.2020034790039,68.36000061035156 C-119.13600158691406,68.36000061035156 -128,59.49599838256836 -128,48.56100082397461 C-128,48.56100082397461 -128,-88.0999984741211 -128,-88.0999984741211 C-128,-99.03399658203125 -119.13600158691406,-107.89800262451172 -108.2020034790039,-107.89800262451172z"></path></g></g><g transform="matrix(0.09858876466751099,0,0,0.09858876466751099,141.43458557128906,63.84833908081055)" opacity="1" style="display: none;"><g opacity="1" transform="matrix(1,0,0,1,60.29800033569336,4.754000186920166)"><path fill="rgb(241,241,241)" fill-opacity="1" d=" M60.04800033569336,4.504000186920166 C60.04800033569336,4.504000186920166 -60.04800033569336,4.504000186920166 -60.04800033569336,4.504000186920166 C-60.04800033569336,4.504000186920166 -60.04800033569336,-4.504000186920166 -60.04800033569336,-4.504000186920166 C-60.04800033569336,-4.504000186920166 60.04800033569336,-4.504000186920166 60.04800033569336,-4.504000186920166 C60.04800033569336,-4.504000186920166 60.04800033569336,4.504000186920166 60.04800033569336,4.504000186920166z"></path></g></g><g transform="matrix(0.09858876466751099,0,0,0.09858876466751099,141.43458557128906,60.592247009277344)" opacity="1" style="display: none;"><g opacity="1" transform="matrix(1,0,0,1,81.31400299072266,4.754000186920166)"><path fill="rgb(241,241,241)" fill-opacity="1" d=" M81.06400299072266,4.504000186920166 C81.06400299072266,4.504000186920166 -81.06400299072266,4.504000186920166 -81.06400299072266,4.504000186920166 C-81.06400299072266,4.504000186920166 -81.06400299072266,-4.504000186920166 -81.06400299072266,-4.504000186920166 C-81.06400299072266,-4.504000186920166 81.06400299072266,-4.504000186920166 81.06400299072266,-4.504000186920166 C81.06400299072266,-4.504000186920166 81.06400299072266,4.504000186920166 81.06400299072266,4.504000186920166z"></path></g></g></g></svg>